#!OML:ASF E:\Style4\Style4.ASF
:FULLY-SPECIFIED
:DEGREES
3496
root -0.166556 17.2145 -1.18009 5.89939 21.2786 2.56804
lowerback 18.0737 4.61106 -0.625876
upperback 11.2112 6.09081 0.193109
thorax 1.87225 3.09581 -0.414757
lowerneck 7.03917 -2.65624 -6.48552
upperneck 2.71659 -3.96044 3.39467
head -0.140301 -2.04103 2.26891
rclavicle -6.75868e-015 -6.36111e-015
rhumerus 27.1334 14.6535 -71.7959
rradius 131.898
rwrist 4.74058
rhand 24.3406 -9.59048
rfingers 7.12502
rthumb 48.5551 -31.5401
lclavicle -6.75868e-015 -6.36111e-015
lhumerus 29.1306 -16.4005 66.3187
lradius 132.298
lwrist -6.63347
lhand 28.5166 48.5492
lfingers 7.12502
lthumb 52.3684 68.4334
rfemur -27.0662 -19.1779 18.1483
rtibia 49.3591
rfoot -25.3379 -23.1056
rtoes -7.86138
lfemur -31.3949 -8.55312 -20.7288
ltibia 44.7426
lfoot -17.5187 3.27116
ltoes -16.6065
3497
root -0.156631 17.2325 -1.18056 5.97365 21.0192 2.61612
lowerback 18.0153 4.66917 -0.592033
upperback 11.133 6.16752 0.114909
thorax 1.82963 3.13701 -0.526793
lowerneck 6.9716 -2.71074 -6.21095
upperneck 2.68587 -4.00888 3.23607
head -0.144108 -2.06094 2.16635
rclavicle 1.15295e-014 -2.14687e-014
rhumerus 27.6706 14.2728 -71.9071
rradius 131.542
rwrist 5.0839
rhand 23.0815 -8.98871
rfingers 7.12502
rthumb 47.3942 -31.4793
lclavicle 1.15295e-014 -2.14687e-014
lhumerus 28.7905 -16.5458 66.3039
lradius 132.521
lwrist -6.25012
lhand 31.1189 49.2936
lfingers 7.12502
lthumb 54.71 67.6401
rfemur -26.9826 -19.08 18.0679
rtibia 48.9965
rfoot -25.0866 -22.9523
rtoes -7.87752
lfemur -31.2002 -8.36707 -20.8193
ltibia 44.3571
lfoot -17.3637 3.30118
ltoes -16.1801
3498
root -0.147226 17.2528 -1.17749 6.02755 20.7532 2.6603
lowerback 17.9232 4.75382 -0.599991
upperback 11.0835 6.27428 0.0760497
thorax 1.82724 3.19004 -0.57492
lowerneck 6.90863 -2.77374 -6.11205
upperneck 2.6273 -4.08203 3.19505
head -0.150874 -2.09557 2.13551
rclavicle -2.34566e-014 4.6118e-014
rhumerus 28.2269 13.8563 -71.911
rradius 131.124
rwrist 5.37561
rhand 21.7139 -8.8249
rfingers 7.12502
rthumb 46.1282 -31.8659
lclavicle -2.34566e-014 4.6118e-014
lhumerus 28.5604 -16.7047 66.3754
lradius 132.714
lwrist -5.71002
lhand 32.7883 49.8976
lfingers 7.12502
lthumb 56.1947 67.1353
rfemur -26.8411 -18.9871 17.9859
rtibia 48.6021
rfoot -24.8321 -22.8141
rtoes -8.05518
lfemur -30.9692 -8.18923 -20.9042
ltibia 43.9742
lfoot -17.3 3.37827
ltoes -16.1825
3499
root -0.13811 17.2751 -1.17372 6.10947 20.4948 2.70399
lowerback 17.7263 4.87697 -0.594827
upperback 11.0922 6.4366 0.0785611
thorax 1.93852 3.27075 -0.582729
lowerneck 6.8391 -2.88755 -6.09803
upperneck 2.49643 -4.2281 3.15964
head -0.174009 -2.16663 2.12387
rclavicle -5.08889e-014 2.70347e-014
rhumerus 28.8012 13.3261 -71.7721
rradius 130.606
rwrist 5.76052
rhand 20.3769 -8.62961
rfingers 7.12502
rthumb 44.886 -32.1739
lclavicle -5.08889e-014 2.70347e-014
lhumerus 28.515 -16.9879 66.5395
lradius 132.902
lwrist -5.03138
lhand 33.4179 50.5782
lfingers 7.12502
lthumb 56.7507 67.37
rfemur -26.7098 -18.8999 17.9217
rtibia 48.1818
rfoot -24.683 -22.6611
rtoes -8.11268
lfemur -30.7647 -8.03662 -20.98
ltibia 43.5895
lfoot -17.2717 3.44592
ltoes -15.6627
3500
root -0.129472 17.2967 -1.17359 6.13782 20.3209 2.642
lowerback 17.4649 4.99645 -0.536354
upperback 11.1609 6.60488 0.187406
thorax 2.14093 3.35406 -0.499375
lowerneck 6.86453 -3.02488 -6.02925
upperneck 2.25541 -4.40629 2.96622
head -0.250885 -2.25106 2.05498
rclavicle -4.6118e-014 1.11319e-014
rhumerus 29.3926 12.7699 -71.5182
rradius 129.967
rwrist 6.32237
rhand 19.8049 -8.51765
rfingers 7.12502
rthumb 44.3533 -32.2675
lclavicle -4.6118e-014 1.11319e-014
lhumerus 28.5758 -17.1087 66.9227
lradius 132.949
lwrist -4.40397
lhand 33.6146 50.3544
lfingers 7.12502
lthumb 56.9239 67.0036
rfemur -26.5437 -18.8835 17.9747
rtibia 47.7434
rfoot -24.4804 -22.5852
rtoes -7.97972
lfemur -30.5701 -7.9145 -20.945
ltibia 43.2198
lfoot -17.1749 3.48896
ltoes -15.1679
3501
root -0.124246 17.3156 -1.17616 6.15545 20.2396 2.59222
lowerback 18.786 4.7059 0.666353
upperback 10.2719 6.35912 -0.84661
thorax 0.758749 3.30493 -2.37245
lowerneck 6.88311 -2.97723 -5.14139
upperneck 2.84421 -4.28391 3.36433
head -0.0845652 -2.19092 2.01601
rclavicle -4.33351e-014 -1.51076e-014
rhumerus 28.6351 12.505 -73.3019
rradius 129.344
rwrist 7.31737
rhand 19.4779 -8.75349
rfingers 7.12502
rthumb 44.0484 -32.6183
lclavicle -4.33351e-014 -1.51076e-014
lhumerus 28.0052 -17.4497 65.8632
lradius 132.916
lwrist -3.65964
lhand 34.0666 49.3859
lfingers 7.12502
lthumb 57.3211 65.7012
rfemur -26.3609 -18.8661 18.0171
rtibia 47.3133
rfoot -24.2749 -22.5628
rtoes -7.78012
lfemur -30.3978 -7.83246 -20.9061
ltibia 42.8697
lfoot -17.0153 3.4909
ltoes -15.1231
3502
root -0.119338 17.3344 -1.1785 6.23045 20.1652 2.53048
lowerback 18.7536 4.70776 0.793871
upperback 10.1385 6.37725 -0.87152
thorax 0.648439 3.316 -2.47688
lowerneck 6.91672 -3.00876 -5.16568
upperneck 2.86938 -4.32891 3.38099
head -0.0793843 -2.21394 2.02689
rclavicle -5.00937e-014 2.54444e-014
rhumerus 28.8328 12.2258 -73.3696
rradius 128.665
rwrist 8.03478
rhand 19.1645 -8.86323
rfingers 7.12502
rthumb 43.756 -32.8365
lclavicle -5.00937e-014 2.54444e-014
lhumerus 28.0199 -17.409 66.0419
lradius 133.074
lwrist -3.46821
lhand 33.9439 49.0979
lfingers 7.12502
lthumb 57.2135 65.5046
rfemur -26.2696 -18.8449 18.0929
rtibia 46.8897
rfoot -24.0774 -22.5182
rtoes -7.8486
lfemur -30.3159 -7.73824 -20.8573
ltibia 42.5262
lfoot -16.8337 3.51827
ltoes -15.3214
3503
root -0.114963 17.3532 -1.18046 6.31631 20.1483 2.4749
lowerback 18.8447 4.70113 1.08145
upperback 9.9495 6.4075 -0.977048
thorax 0.4446 3.33996 -2.7707
lowerneck 6.90183 -3.08107 -5.14584
upperneck 2.95766 -4.42323 3.43786
head -0.0438879 -2.26134 2.04173
rclavicle -4.45278e-014 1.11319e-014
rhumerus 28.8176 11.8566 -73.5473
rradius 128.031
rwrist 8.92865
rhand 19.0489 -8.33431
rfingers 7.12502
rthumb 43.6481 -32.3472
lclavicle -4.45278e-014 1.11319e-014
lhumerus 28.1942 -17.6401 66.095
lradius 133.524
lwrist -3.45256
lhand 32.874 49.6276
lfingers 7.12502
lthumb 56.2706 66.8055
rfemur -26.1889 -18.8788 18.1818
rtibia 46.4806
rfoot -23.7452 -22.5847
rtoes -8.3097
lfemur -30.2542 -7.69434 -20.8028
ltibia 42.186
lfoot -16.6404 3.45791
ltoes -15.4568
3504
root -0.111055 17.3715 -1.18002 6.39713 20.1517 2.49876
lowerback 18.9477 4.65881 1.27036
upperback 9.78333 6.37678 -1.11269
thorax 0.249061 3.33023 -3.03149
lowerneck 6.92969 -3.10256 -5.10226
upperneck 2.95851 -4.44991 3.4403
head -0.0479714 -2.27445 2.03575
rclavicle -8.54774e-014 4.13472e-014
rhumerus 28.7252 11.6914 -73.775
rradius 127.422
rwrist 9.93523
rhand 19.0053 -8.07311
rfingers 7.12502
rthumb 43.6073 -32.1009
lclavicle -8.54774e-014 4.13472e-014
lhumerus 28.3685 -17.6331 66.1753
lradius 133.908
lwrist -3.57737
lhand 32.1617 49.5572
lfingers 7.12502
lthumb 55.6392 67.2232
rfemur -26.0698 -18.887 18.1643
rtibia 46.0906
rfoot -23.5025 -22.6511
rtoes -8.47942
lfemur -30.1379 -7.64471 -20.8429
ltibia 41.8289
lfoot -16.3972 3.43507
ltoes -15.866
3505
root -0.107747 17.391 -1.18088 6.51296 20.218 2.45978
lowerback 19.0339 4.54666 1.47903
upperback 9.5679 6.25813 -1.2453
thorax 0.00435441 3.2744 -3.28657
lowerneck 6.99617 -3.0663 -5.03273
upperneck 2.96972 -4.39997 3.44109
head -0.0594679 -2.24945 2.02423
rclavicle -7.31528e-014 4.13472e-014
rhumerus 28.5224 11.7325 -74.0424
rradius 126.84
rwrist 10.9307
rhand 18.823 -8.14578
rfingers 7.12502
rthumb 43.4371 -32.2354
lclavicle -7.31528e-014 4.13472e-014
lhumerus 28.5087 -17.3967 66.2702
lradius 134.113
lwrist -3.73007
lhand 32.0654 49.0617
lfingers 7.12502
lthumb 55.5537 66.7922
rfemur -26.024 -18.8793 18.2333
rtibia 45.7246
rfoot -23.2315 -22.8069
rtoes -8.70278
lfemur -30.0937 -7.63785 -20.8019
ltibia 41.4693
lfoot -16.2062 3.40378
ltoes -15.8342
3506
root -0.106492 17.4085 -1.18318 6.64585 20.2873 2.45375
lowerback 18.9633 4.48149 1.5027
upperback 9.44848 6.17455 -1.25863
thorax -0.0906038 3.22957 -3.2999
lowerneck 6.99868 -3.04336 -5.04723
upperneck 2.97494 -4.37065 3.39103
head -0.0603284 -2.23468 2.00999
rclavicle 2.8625e-014 -3.57812e-014
rhumerus 28.3548 11.7896 -74.1226
rradius 126.351
rwrist 11.9064
rhand 18.8423 -8.30343
rfingers 7.12502
rthumb 43.4551 -32.3866
lclavicle 2.8625e-014 -3.57812e-014
lhumerus 28.804 -17.1685 66.5062
lradius 134.156
lwrist -3.91316
lhand 31.1791 48.2198
lfingers 7.12502
lthumb 54.7638 66.528
rfemur -25.9965 -18.8628 18.2867
rtibia 45.3905
rfoot -23.0711 -22.9172
rtoes -8.7693
lfemur -30.0613 -7.585 -20.7919
ltibia 41.1091
lfoot -16.0189 3.3528
ltoes -15.766
3507
root -0.10695 17.4246 -1.18349 6.74021 20.389 2.51008
lowerback 18.4178 4.53415 1.01741
upperback 9.67344 6.17703 -0.895594
thorax 0.33221 3.2123 -2.58902
lowerneck 6.98029 -3.03533 -5.31767
upperneck 2.72403 -4.37649 3.12098
head -0.135806 -2.23655 1.97341
rclavicle -2.74323e-014 -8.74653e-015
rhumerus 28.5134 11.8935 -73.584
rradius 125.99
rwrist 12.7437
rhand 19.2049 -8.65625
rfingers 7.12502
rthumb 43.7937 -32.6157
lclavicle -2.74323e-014 -8.74653e-015
lhumerus 29.3547 -16.804 67.1715
lradius 133.997
lwrist -4.21138
lhand 29.386 46.9961
lfingers 7.12502
lthumb 53.1541 66.3904
rfemur -25.8939 -18.841 18.2575
rtibia 45.0746
rfoot -22.9817 -22.9992
rtoes -8.79891
lfemur -29.9727 -7.59164 -20.8439
ltibia 40.7708
lfoot -15.8482 3.31182
ltoes -15.7146
3508
root -0.108237 17.4401 -1.18088 6.78401 20.4614 2.51164
lowerback 18.0051 4.53535 0.710412
upperback 9.83402 6.14003 -0.657493
thorax 0.652206 3.18061 -2.1188
lowerneck 6.96849 -2.99561 -5.61744
upperneck 2.55387 -4.34453 3.03266
head -0.184488 -2.22123 1.99989
rclavicle 1.15295e-013 -5.00937e-014
rhumerus 28.4584 12.0586 -73.2792
rradius 125.752
rwrist 13.5469
rhand 19.9198 -8.89917
rfingers 7.12502
rthumb 44.4604 -32.6082
lclavicle 1.15295e-013 -5.00937e-014
lhumerus 29.9395 -16.281 67.666
lradius 133.908
lwrist -4.45263
lhand 28.1723 46.2313
lfingers 7.12502
lthumb 52.0564 66.3034
rfemur -25.7653 -18.7331 18.2715
rtibia 44.7837
rfoot -22.9329 -23.0894
rtoes -8.67859
lfemur -29.8446 -7.61723 -20.8328
ltibia 40.4459
lfoot -15.7216 3.31064
ltoes -15.8068
3509
root -0.108659 17.4555 -1.17951 6.84822 20.5493 2.41983
lowerback 17.7111 4.47591 0.621109
upperback 9.90812 6.05427 -0.50009
thorax 0.850549 3.13189 -1.86164
lowerneck 6.91908 -2.91886 -5.91607
upperneck 2.40468 -4.26233 3.04025
head -0.22091 -2.18149 2.05569
rclavicle 9.46215e-014 -2.46493e-014
rhumerus 28.2195 12.2911 -73.1044
rradius 125.623
rwrist 14.0692
rhand 20.7632 -9.0041
rfingers 7.12502
rthumb 45.2453 -32.4064
lclavicle 9.46215e-014 -2.46493e-014
lhumerus 30.5705 -15.6568 68.0264
lradius 133.811
lwrist -4.74465
lhand 27.4609 45.8379
lfingers 7.12502
lthumb 51.4104 66.2874
rfemur -25.6903 -18.6123 18.4007
rtibia 44.5077
rfoot -22.9387 -23.1856
rtoes -8.28837
lfemur -29.7924 -7.65194 -20.7131
ltibia 40.1413
lfoot -15.5754 3.26565
ltoes -15.8069
3510
root -0.109241 17.47 -1.1801 6.96337 20.6926 2.44011
lowerback 17.5685 4.4122 0.58591
upperback 9.8932 5.96759 -0.465061
thorax 0.896262 3.08621 -1.78062
lowerneck 6.89546 -2.8674 -6.08371
upperneck 2.3349 -4.20539 3.11641
head -0.236961 -2.15457 2.11045
rclavicle -9.14409e-014 6.91771e-014
rhumerus 27.696 12.4692 -73.1288
rradius 125.595
rwrist 14.3666
rhand 21.4093 -9.23892
rfingers 7.12502
rthumb 45.8456 -32.3975
lclavicle -9.14409e-014 6.91771e-014
lhumerus 31.2042 -15.1226 68.3482
lradius 133.683
lwrist -4.69709
lhand 27.0196 45.4772
lfingers 7.12502
lthumb 51.0086 66.1538
rfemur -25.6381 -18.5358 18.4206
rtibia 44.2641
rfoot -22.9466 -23.3025
rtoes -8.00413
lfemur -29.7641 -7.71832 -20.7178
ltibia 39.8412
lfoot -15.3601 3.19649
ltoes -15.7119
